<svg xmlns="http://www.w3.org/2000/svg" xmlns:xlink="http://www.w3.org/1999/xlink" xmlns:fi="http://pattern.flaticon.com/" width="700" height="350" viewBox="0 0 957.031 478.516">
  <defs>
    <g transform="matrix(.11719 0 0 .11719 192 93)" id="a">
      <path d="M512 306.131c0-28.141-16.58-53.882-41.774-65.707l-2.892-56.771a8.213 8.213 0 0 0-8.204-7.796h-69.362c-13.024-22.115-36.491-35.641-62.47-35.641-6.127 0-12.18.778-18.057 2.289l-15.329-11.488a8.216 8.216 0 0 0-9.854 13.148l7.367 5.521a72.077 72.077 0 0 0-19.668 16.409 242.294 242.294 0 0 0-31.517 0 72.605 72.605 0 0 0-18.735-15.86l30.802-29.865 9.781 7.33a8.216 8.216 0 0 0 9.854-13.148l-15.392-11.535a8.215 8.215 0 0 0-10.645.676l-40.712 39.475a72.396 72.396 0 0 0-20.491-2.952c-27.701 0-52.587 15.4-64.941 40.186-5.05 10.115-7.612 21.005-7.612 32.367 0 .487.022.977.032 1.466a239.684 239.684 0 0 0-23.982 21.044 72.542 72.542 0 0 0-15.634-1.699c-4.578 0-9.105.437-13.551 1.279l2.169-42.572h36.37a8.214 8.214 0 0 0 8.215-8.215 8.214 8.214 0 0 0-8.215-8.215H53.374a8.214 8.214 0 0 0-8.204 7.796l-2.88 56.532C16.784 251.909 0 277.75 0 306.131c0 20.306 8.375 39.372 23.115 53.073a238.677 238.677 0 0 0-3.947 43.203 8.214 8.214 0 0 0 8.215 8.215h75.28c4.538 0 8.215-3.678 8.215-8.215s-3.677-8.215-8.215-8.215H35.749a221.319 221.319 0 0 1 4.369-36.409c8.296-40.397 27.827-77.602 56.482-107.606.031-.031.065-.058.094-.089a222.793 222.793 0 0 1 28.771-25.296 219.517 219.517 0 0 1 111.743-42.001 224.303 224.303 0 0 1 37.594.001c26.781 2.256 52.605 9.299 76.757 20.933a8.215 8.215 0 1 0 7.13-14.802 234.532 234.532 0 0 0-65.774-20.491c5.153-3.996 10.983-7.105 17.173-9.095a.096.096 0 0 0 .018-.007l.001.004a55.889 55.889 0 0 1 17.192-2.692c21.504 0 40.788 11.98 50.331 31.275a55.23 55.23 0 0 1 4.767 14.168c-.995-.629-1.988-1.261-2.988-1.872a8.215 8.215 0 0 0-11.295 2.723 8.215 8.215 0 0 0 2.722 11.294 221.603 221.603 0 0 1 15.591 10.472c.038.029.071.061.111.09a222.112 222.112 0 0 1 28.779 25.295c.031.032.065.058.094.09 28.654 30.004 48.185 67.209 56.483 107.609a221.243 221.243 0 0 1 4.368 36.406H127.67a8.214 8.214 0 0 0-8.215 8.215 8.214 8.214 0 0 0 8.215 8.215h356.956a8.214 8.214 0 0 0 8.215-8.215c0-14.53-1.335-29.04-3.948-43.205C503.63 345.499 512 326.434 512 306.131zM27.573 339.684c-7.173-9.586-11.144-21.273-11.144-33.552 0-23.386 14.729-44.543 36.652-52.647a55.947 55.947 0 0 1 21.588-3.436c-22.047 26.209-38.093 56.749-47.096 89.635zm102.033-137.598a55.477 55.477 0 0 1 4.857-14.351c9.56-19.178 28.811-31.091 50.239-31.091 6.808 0 13.451 1.202 19.748 3.571a55.948 55.948 0 0 1 14.673 8.221 235.9 235.9 0 0 0-89.517 33.65zm270.215 12.145c.01-.488.032-.976.032-1.463 0-7.039-.981-13.892-2.924-20.482h54.395l2.174 42.67a72.535 72.535 0 0 0-29.683.322 238.982 238.982 0 0 0-23.994-21.047zm84.616 125.446c-9.003-32.884-25.049-63.421-47.095-89.629a55.784 55.784 0 0 1 21.963 3.58c21.693 8.195 36.266 29.294 36.266 52.502-.001 12.276-3.967 23.961-11.134 33.547z"/>
      <path d="M145.976 333.406a8.214 8.214 0 0 0-8.215 8.215c0 6.341-5.159 11.5-11.5 11.5s-11.5-5.159-11.5-11.5 5.159-11.5 11.5-11.5c4.538 0 8.215-3.678 8.215-8.215s-3.677-8.215-8.215-8.215c-15.401 0-27.929 12.529-27.929 27.929s12.528 27.929 27.929 27.929c15.401 0 27.929-12.529 27.929-27.929a8.214 8.214 0 0 0-8.214-8.214zM362.616 304.375a8.214 8.214 0 0 0-8.215 8.215c0 6.341-5.159 11.5-11.5 11.5s-11.5-5.159-11.5-11.5 5.159-11.5 11.5-11.5c4.538 0 8.215-3.678 8.215-8.215s-3.677-8.215-8.215-8.215c-15.4 0-27.929 12.529-27.929 27.929s12.528 27.929 27.929 27.929 27.929-12.529 27.929-27.929a8.213 8.213 0 0 0-8.214-8.214zM252.87 243.111a8.214 8.214 0 0 0-8.215 8.215c0 6.341-5.159 11.5-11.5 11.5s-11.5-5.159-11.5-11.5 5.159-11.5 11.5-11.5c4.538 0 8.215-3.678 8.215-8.215s-3.677-8.215-8.215-8.215c-15.401 0-27.929 12.529-27.929 27.929 0 15.4 12.528 27.929 27.929 27.929s27.929-12.529 27.929-27.929a8.214 8.214 0 0 0-8.214-8.214z"/>
      <circle cx="155" cy="267" r="8"/>
      <circle cx="332" cy="246" r="8"/>
      <circle cx="264" cy="353" r="8"/>
    </g>
    <g id="c">
      <path d="M250.956 382.77c-4.086-.848-23.251 2.453-41.515-7.39a7.501 7.501 0 1 0-7.119 13.207c1.556.838 3.116 1.6 4.679 2.293-15.304 6.722-27.668 18.856-34.891 36.791-6.853-16.778-18.598-29.534-34.906-36.811 16.632-7.422 28.203-20.402 34.906-36.808 1.436 3.544 2.746 6.006 2.796 6.108a7.502 7.502 0 0 0 13.363-6.821c-.022-.1-9.103-16.674-8.03-38.733.613-4.135-2.285-8.245-6.704-9.058-4.022-.792-8.478 1.759-9.514 6.277-.536 2.341 3.344 42.848-26.052 61.642-19.137 12.208-40.863 8.414-44.911 9.332-8.557 1.948-8.55 14.176 0 16.123 3.998.901 26.15-2.883 45.293 9.578 28.428 18.522 25.291 57.953 25.481 59.719 0 9.249 13.217 11.331 16.134 2.307.987-3.073-3.164-42.18 24.905-61.4 18.493-12.672 41.411-9.616 45.399-10.065 9.126-1.025 9.942-14.333.686-16.291zM503.965 236.428c-13.713-1.523-111.464 12.208-154.185-77.488-22.458-47.18-16.698-89.951-17.922-95.317-1.102-4.824-5.663-7.714-10.024-7.157-4.973.563-8.272 4.681-8.272 8.827v19.464c-3.389 66.912-33.839 123.872-97.781 143.921-36.925 11.583-68.981 6.58-74.966 7.889-9.598 2.178-9.67 15.963.102 18.134 8.368 1.766 71.326-8.434 120.217 32.169a7.503 7.503 0 0 0 9.586-11.542c-16.776-13.932-36.883-23.888-59.891-29.672 60.573-15.257 97.752-58.495 111.983-119.061 14.112 60.195 50.984 103.816 112.208 118.997-60.613 15.167-98.306 58.369-112.295 118.769-5.208-22.138-13.896-43.327-26.956-61.831a7.502 7.502 0 0 0-12.258 8.65c4.604 6.522 8.747 13.629 12.319 21.124 21.189 44.516 17.445 89.806 17.752 94.175.791 11.16 18.999 11.722 18.429-2.077-1.029-24.872.9-109.129 68.956-149.111 45.923-26.952 97.009-19.079 103.828-20.613 10.278-2.333 9.166-17.128-.83-18.25zM164.308 113.042c-5.079-1.053-45.121 6.036-63.009-30.052-8.409-16.93-7.825-35.754-7.71-38.114.602-4.085-2.234-8.238-6.711-9.055-3.997-.791-8.474 1.745-9.509 6.29-.534 2.33 3.343 42.837-26.05 61.631-18.466 11.78-40.018 8.737-44.08 9.19-9.127 1.038-9.865 14.207-.832 16.264 4.362.982 26.045-2.952 45.293 9.578 20.514 13.364 24.777 37.908 25.482 51.479.097 7.756-.246 8.658.363 10.548 1.121 3.469 4.29 5.798 7.884 5.798 4.126.002 7.469-3.049 8.131-6.788.458-2.564-1.544-22.068 7.956-40.945a7.502 7.502 0 0 0-13.401-6.745 77.787 77.787 0 0 0-2.642 5.856c-6.849-16.789-18.595-29.555-34.917-36.841 16.631-7.425 28.201-20.402 34.904-36.809 6.699 16.527 18.176 29.448 34.878 36.835a68.655 68.655 0 0 0-4.899 2.398 7.5 7.5 0 0 0-3.028 10.167 7.502 7.502 0 0 0 10.167 3.029c17.704-9.578 37.046-6.973 41.043-7.418 9.175-1.052 9.871-14.353.687-16.296z" transform="matrix(.1093 0 0 .1093 82.02 208.03)"/>
    </g>
    <g id="e">
      <path d="M20.136 33h-9.212a4.355 4.355 0 0 1-4.349-4.349V11.265a.5.5 0 0 1 .5-.5h16.828c.276 0 .581.224.581.5v17.387A4.354 4.354 0 0 1 20.136 33zM7.575 11.765v16.887a3.352 3.352 0 0 0 3.349 3.349h9.212a3.352 3.352 0 0 0 3.349-3.349V11.765H7.575z" transform="translate(-29 -8) scale(1.81818)"/>
      <path d="M26.096 25.574h-2.111a.5.5 0 0 1 0-1h2.111a1.825 1.825 0 0 0 1.823-1.823v-4.693a1.826 1.826 0 0 0-1.823-1.824h-2.111a.5.5 0 0 1 0-1h2.111a2.827 2.827 0 0 1 2.823 2.824v4.693a2.826 2.826 0 0 1-2.823 2.823zM11.376 28.365a.5.5 0 0 1-.5-.5V15.691a.5.5 0 0 1 1 0v12.174a.5.5 0 0 1-.5.5zM19.683 28.365a.5.5 0 0 1-.5-.5V15.691a.5.5 0 0 1 1 0v12.174a.5.5 0 0 1-.5.5zM15.529 28.365a.5.5 0 0 1-.5-.5V15.691a.5.5 0 0 1 1 0v12.174c0 .277-.223.5-.5.5zM23.698 11.765H7.361c-1.809 0-3.28-1.472-3.28-3.28s1.472-3.28 3.28-3.28H7.6A5.852 5.852 0 0 1 13.438 0c1.795 0 3.482.819 4.596 2.213a3.832 3.832 0 0 1 1.508-.312 3.97 3.97 0 0 1 3.909 3.303h.247c1.809 0 3.28 1.472 3.28 3.28s-1.471 3.281-3.28 3.281zM7.361 6.204c-1.258 0-2.28 1.022-2.28 2.28s1.022 2.28 2.28 2.28h16.337c1.258 0 2.28-1.022 2.28-2.28s-1.022-2.28-2.28-2.28h-.693a.5.5 0 0 1-.499-.475 2.973 2.973 0 0 0-2.964-2.828c-.485 0-.964.128-1.423.38a.5.5 0 0 1-.652-.155A4.886 4.886 0 0 0 13.438 1a4.857 4.857 0 0 0-4.873 4.721.5.5 0 0 1-.5.483h-.704z" transform="translate(-29 -8) scale(1.81818)"/>
    </g>
  </defs>
  <g fi:class="KUsePattern1">
    <pattern id="b" width="350" height="350" patternUnits="userSpaceOnUse">
      <use xlink:href="#a" x="-350" y="-350"/>
      <use xlink:href="#a" y="-350"/>
      <use xlink:href="#a" x="350" y="-350"/>
      <use xlink:href="#a" x="-350"/>
      <use xlink:href="#a"/>
      <use xlink:href="#a" x="350"/>
      <use xlink:href="#a" x="-350" y="350"/>
      <use xlink:href="#a" y="350"/>
      <use xlink:href="#a" x="350" y="350"/>
    </pattern>
    <rect width="100%" height="100%" fill="url(#b)"/>
  </g>
  <g fi:class="KUsePattern">
    <pattern id="d" width="350" height="350" patternUnits="userSpaceOnUse">
      <use xlink:href="#c" x="-350" y="-350"/>
      <use xlink:href="#c" y="-350"/>
      <use xlink:href="#c" x="350" y="-350"/>
      <use xlink:href="#c" x="-350"/>
      <use xlink:href="#c"/>
      <use xlink:href="#c" x="350"/>
      <use xlink:href="#c" x="-350" y="350"/>
      <use xlink:href="#c" y="350"/>
      <use xlink:href="#c" x="350" y="350"/>
    </pattern>
    <rect width="100%" height="100%" fill="url(#d)"/>
  </g>
  <g fi:class="KUsePattern">
    <pattern id="f" width="350" height="350" patternUnits="userSpaceOnUse">
      <use xlink:href="#e" x="-350" y="-350"/>
      <use xlink:href="#e" y="-350"/>
      <use xlink:href="#e" x="350" y="-350"/>
      <use xlink:href="#e" x="-350"/>
      <use xlink:href="#e"/>
      <use xlink:href="#e" x="350"/>
      <use xlink:href="#e" x="-350" y="350"/>
      <use xlink:href="#e" y="350"/>
      <use xlink:href="#e" x="350" y="350"/>
    </pattern>
    <rect width="100%" height="100%" fill="url(#f)"/>
  </g>
</svg>
